<?xml version="1.0" standalone="no"?>
<!DOCTYPE svg PUBLIC "-//W3C//DTD SVG 20010904//EN"
 "http://www.w3.org/TR/2001/REC-SVG-20010904/DTD/svg10.dtd">
<svg version="1.0" xmlns="http://www.w3.org/2000/svg"
 width="240.000000pt" height="240.000000pt" viewBox="0 0 240.000000 240.000000"
 preserveAspectRatio="xMidYMid meet">

<g transform="translate(0.000000,240.000000) scale(0.100000,-0.100000)"
fill="#000000" stroke="none">
<path d="M354 1901 c-59 -15 -102 -50 -129 -105 l-25 -52 2 -632 3 -632 38
-37 37 -38 188 0 187 0 3 378 c1 207 4 377 7 377 3 0 122 -88 266 -195 143
-107 264 -195 268 -195 5 0 129 90 275 199 l266 199 2 -382 3 -381 187 0 188
0 37 38 38 37 0 643 c0 624 -1 643 -20 676 -36 60 -88 94 -153 99 -37 3 -70
-1 -93 -11 -20 -8 -152 -102 -295 -208 -407 -305 -428 -320 -440 -315 -7 3
-155 112 -329 243 -174 131 -335 250 -358 265 -46 30 -105 41 -153 29z"/>
</g>
</svg>
