<?xml version="1.0" standalone="no"?>
<!DOCTYPE svg PUBLIC "-//W3C//DTD SVG 20010904//EN"
 "http://www.w3.org/TR/2001/REC-SVG-20010904/DTD/svg10.dtd">
<svg version="1.0" xmlns="http://www.w3.org/2000/svg"
 width="240.000000pt" height="240.000000pt" viewBox="0 0 240.000000 240.000000"
 preserveAspectRatio="xMidYMid meet">

<g transform="translate(0.000000,240.000000) scale(0.100000,-0.100000)"
fill="#000000" stroke="none">
<path d="M1027 2184 c-382 -69 -689 -355 -793 -739 -15 -56 -19 -105 -19 -245
0 -153 3 -185 23 -255 50 -173 138 -322 261 -446 89 -89 173 -147 285 -199
101 -47 128 -53 151 -37 18 14 21 35 17 145 l-2 63 -62 -7 c-75 -7 -126 5
-189 45 -38 23 -53 43 -82 102 -37 78 -55 101 -112 144 -54 41 -47 58 20 53
62 -5 83 -20 147 -106 66 -89 139 -117 233 -90 43 12 49 17 61 53 8 22 21 52
29 67 15 27 15 28 -12 34 -155 34 -219 62 -287 124 -84 77 -126 193 -126 345
0 108 17 174 63 242 30 43 32 52 24 88 -10 48 -4 159 12 199 11 28 13 28 62
22 47 -6 158 -55 203 -89 16 -12 27 -12 80 1 78 19 269 21 366 4 l75 -14 70
41 c39 23 96 46 129 53 53 10 60 10 72 -7 25 -34 37 -122 25 -191 -11 -62 -11
-64 18 -104 49 -67 66 -132 66 -245 0 -107 -14 -171 -52 -248 -50 -101 -165
-181 -298 -207 -100 -19 -95 -13 -63 -77 28 -55 28 -58 28 -239 0 -183 0 -184
24 -199 22 -15 29 -14 103 15 100 38 238 129 321 209 333 326 397 828 156
1233 -66 112 -220 266 -332 332 -212 126 -461 172 -695 130z"/>
</g>
</svg>
