<?xml version="1.0" standalone="no"?>
<!DOCTYPE svg PUBLIC "-//W3C//DTD SVG 20010904//EN"
 "http://www.w3.org/TR/2001/REC-SVG-20010904/DTD/svg10.dtd">
<svg version="1.0" xmlns="http://www.w3.org/2000/svg"
 width="240.000000pt" height="240.000000pt" viewBox="0 0 240.000000 240.000000"
 preserveAspectRatio="xMidYMid meet">

<g transform="translate(0.000000,240.000000) scale(0.100000,-0.100000)"
fill="#000000" stroke="none">
<path d="M1065 2193 c-351 -49 -670 -300 -796 -628 -38 -98 -77 -281 -63 -295
6 -6 125 -58 265 -116 245 -102 255 -105 289 -93 19 7 59 17 89 23 l54 11 119
174 c107 155 121 180 129 233 33 204 234 354 426 319 184 -34 311 -173 321
-351 5 -97 -16 -172 -72 -247 -66 -90 -176 -153 -265 -153 -33 0 -59 -14 -162
-86 -229 -161 -233 -164 -240 -215 -9 -57 -39 -117 -81 -159 -129 -130 -369
-84 -438 84 l-22 53 -181 77 c-99 42 -182 74 -185 72 -17 -18 84 -217 158
-311 336 -423 932 -509 1368 -197 264 188 416 486 416 812 -2 483 -329 883
-803 980 -93 19 -241 25 -326 13z"/>
<path d="M1432 1685 c-85 -37 -135 -99 -154 -189 -36 -181 157 -346 328 -281
214 81 231 358 29 464 -48 25 -152 28 -203 6z m199 -80 c73 -48 104 -167 65
-243 -69 -134 -270 -133 -336 3 -46 96 -11 202 85 251 62 32 128 28 186 -11z"/>
<path d="M837 1022 c-13 -6 3 -17 70 -49 102 -49 125 -75 130 -147 11 -139
-109 -203 -258 -140 -34 14 -64 23 -67 20 -11 -11 79 -85 115 -95 103 -29 205
15 254 111 35 69 20 179 -34 236 -47 50 -161 85 -210 64z"/>
</g>
</svg>
