<?xml version="1.0" standalone="no"?>
<!DOCTYPE svg PUBLIC "-//W3C//DTD SVG 20010904//EN"
 "http://www.w3.org/TR/2001/REC-SVG-20010904/DTD/svg10.dtd">
<svg version="1.0" xmlns="http://www.w3.org/2000/svg"
 width="240.000000pt" height="240.000000pt" viewBox="0 0 240.000000 240.000000"
 preserveAspectRatio="xMidYMid meet">

<g transform="translate(0.000000,240.000000) scale(0.100000,-0.100000)"
fill="#000000" stroke="none">
<path d="M1497 1990 c-72 -13 -171 -63 -221 -113 -78 -78 -116 -176 -116 -300
l0 -77 -42 6 c-166 25 -296 64 -422 129 -110 57 -180 108 -282 208 l-82 79
-20 -54 c-56 -152 -26 -311 82 -423 25 -27 46 -50 46 -52 0 -9 -51 0 -100 17
-30 10 -57 16 -59 14 -10 -9 21 -130 46 -177 37 -73 112 -143 196 -182 l72
-34 -40 -3 c-22 -1 -59 -1 -83 1 -36 2 -42 -1 -42 -17 0 -36 80 -141 138 -182
53 -38 160 -80 205 -80 55 0 -158 -117 -264 -146 -35 -9 -116 -20 -179 -23
l-115 -6 103 -53 c66 -34 145 -64 220 -84 110 -29 127 -31 287 -31 187 1 272
17 440 82 380 147 673 566 692 992 l6 117 58 51 c60 53 135 138 127 146 -2 2
-31 -4 -63 -14 -33 -10 -78 -22 -100 -26 l-40 -7 55 54 c54 52 111 141 98 153
-3 4 -25 -3 -49 -16 -58 -29 -147 -59 -176 -59 -13 0 -45 16 -70 35 -82 63
-203 92 -306 75z"/>
</g>
</svg>
